<svg width="1096" height="98" viewBox="0 0 1096 98" fill="none" xmlns="http://www.w3.org/2000/svg">
<path d="M20 25.5L20 72.5" stroke="#A0AEC0" stroke-width="3" stroke-linecap="round"/>
<path d="M44 41.5L44 56.5" stroke="#C6CED9" stroke-width="3" stroke-linecap="round"/>
<path d="M68 41.5L68 56.5" stroke="#C6CED9" stroke-width="3" stroke-linecap="round"/>
<path d="M92 41.5L92 56.5" stroke="#C6CED9" stroke-width="3" stroke-linecap="round"/>
<path d="M116 41.5L116 56.5" stroke="#C6CED9" stroke-width="3" stroke-linecap="round"/>
<path d="M140 35.5L140 62.5" stroke="#A0AEC0" stroke-width="3" stroke-linecap="round"/>
<path d="M164 41.5L164 56.5" stroke="#C6CED9" stroke-width="3" stroke-linecap="round"/>
<path d="M188 41.5L188 56.5" stroke="#C6CED9" stroke-width="3" stroke-linecap="round"/>
<path d="M212 41.5L212 56.5" stroke="#C6CED9" stroke-width="3" stroke-linecap="round"/>
<path d="M236 41.5L236 56.5" stroke="#C6CED9" stroke-width="3" stroke-linecap="round"/>
<path d="M260 25.5L260 72.5" stroke="#A0AEC0" stroke-width="3" stroke-linecap="round"/>
<path d="M284 41.5L284 56.5" stroke="#C6CED9" stroke-width="3" stroke-linecap="round"/>
<path d="M308 41.5L308 56.5" stroke="#C6CED9" stroke-width="3" stroke-linecap="round"/>
<path d="M332 41.5L332 56.5" stroke="#C6CED9" stroke-width="3" stroke-linecap="round"/>
<path d="M356 41.5L356 56.5" stroke="#C6CED9" stroke-width="3" stroke-linecap="round"/>
<path d="M380 35.5L380 62.5" stroke="#A0AEC0" stroke-width="3" stroke-linecap="round"/>
<path d="M404 41.5L404 56.5" stroke="#C6CED9" stroke-width="3" stroke-linecap="round"/>
<path d="M428 41.5L428 56.5" stroke="#C6CED9" stroke-width="3" stroke-linecap="round"/>
<path d="M452 41.5L452 56.5" stroke="#C6CED9" stroke-width="3" stroke-linecap="round"/>
<path d="M476 41.5L476 56.5" stroke="#C6CED9" stroke-width="3" stroke-linecap="round"/>
<path d="M500 25.5L500 72.5" stroke="#A0AEC0" stroke-width="3" stroke-linecap="round"/>
<path d="M524 41.5L524 56.5" stroke="#C6CED9" stroke-width="3" stroke-linecap="round"/>
<path d="M548 41.5L548 56.5" stroke="#1B85F3" stroke-width="3" stroke-linecap="round"/>
<path d="M572 41.5L572 56.5" stroke="#C6CED9" stroke-width="3" stroke-linecap="round"/>
<path d="M596 41.5L596 56.5" stroke="#C6CED9" stroke-width="3" stroke-linecap="round"/>
<path d="M620 35.5L620 62.5" stroke="#A0AEC0" stroke-width="3" stroke-linecap="round"/>
<path d="M644 41.5L644 56.5" stroke="#C6CED9" stroke-width="3" stroke-linecap="round"/>
<path d="M668 41.5L668 56.5" stroke="#C6CED9" stroke-width="3" stroke-linecap="round"/>
<path d="M692 41.5L692 56.5" stroke="#C6CED9" stroke-width="3" stroke-linecap="round"/>
<path d="M716 41.5L716 56.5" stroke="#C6CED9" stroke-width="3" stroke-linecap="round"/>
<path d="M740 25.5L740 72.5" stroke="#A0AEC0" stroke-width="3" stroke-linecap="round"/>
<path d="M764 41.5L764 56.5" stroke="#C6CED9" stroke-width="3" stroke-linecap="round"/>
<path d="M788 41.5L788 56.5" stroke="#C6CED9" stroke-width="3" stroke-linecap="round"/>
<path d="M812 41.5L812 56.5" stroke="#C6CED9" stroke-width="3" stroke-linecap="round"/>
<path d="M836 41.5L836 56.5" stroke="#C6CED9" stroke-width="3" stroke-linecap="round"/>
<path d="M860 35.5L860 62.5" stroke="#A0AEC0" stroke-width="3" stroke-linecap="round"/>
<path d="M884 41.5L884 56.5" stroke="#C6CED9" stroke-width="3" stroke-linecap="round"/>
<path d="M908 41.5L908 56.5" stroke="#C6CED9" stroke-width="3" stroke-linecap="round"/>
<path d="M932 41.5L932 56.5" stroke="#C6CED9" stroke-width="3" stroke-linecap="round"/>
<path d="M956 41.5L956 56.5" stroke="#C6CED9" stroke-width="3" stroke-linecap="round"/>
<path d="M980 25.5L980 72.5" stroke="#A0AEC0" stroke-width="3" stroke-linecap="round"/>
<path d="M1004 41.5L1004 56.5" stroke="#C6CED9" stroke-width="3" stroke-linecap="round"/>
<path d="M1028 41.5L1028 56.5" stroke="#C6CED9" stroke-width="3" stroke-linecap="round"/>
<path d="M1052 41.5L1052 56.5" stroke="#C6CED9" stroke-width="3" stroke-linecap="round"/>
<path d="M1076 41.5L1076 56.5" stroke="#C6CED9" stroke-width="3" stroke-linecap="round"/>
</svg>
