<svg width="14" height="14" viewBox="0 0 14 14" fill="none" xmlns="http://www.w3.org/2000/svg">
<path d="M1.24805 8.86802C1.45605 8.95802 1.68405 9.00402 1.91738 8.99935C2.17704 9.00479 2.43413 8.94694 2.66643 8.83079C2.89873 8.71464 3.09927 8.54368 3.25071 8.33269C3.40216 8.12169 3.60269 7.95074 3.835 7.83459C4.0673 7.71844 4.32438 7.66058 4.58405 7.66602C4.84371 7.66058 5.1008 7.71844 5.3331 7.83459C5.5654 7.95074 5.76593 8.12169 5.91738 8.33269C6.06883 8.54368 6.26936 8.71464 6.50166 8.83079C6.73396 8.94694 6.99105 9.00479 7.25071 8.99935C7.51038 9.00479 7.76746 8.94694 7.99976 8.83079C8.23207 8.71464 8.4326 8.54368 8.58405 8.33269C8.73549 8.12169 8.93603 7.95074 9.16833 7.83459C9.40063 7.71844 9.65772 7.66058 9.91738 7.66602C10.177 7.66058 10.4341 7.71844 10.6664 7.83459C10.8987 7.95074 11.0993 8.12169 11.2507 8.33269C11.4022 8.54368 11.6027 8.71464 11.835 8.83079C12.0673 8.94694 12.3244 9.00479 12.584 8.99935C12.8174 9.00402 13.0454 8.95802 13.2534 8.86802M1.25073 12.3327H13.2507V6.99935C13.2507 6.46892 13.04 5.96021 12.6649 5.58513C12.2899 5.21006 11.7812 4.99935 11.2507 4.99935H3.25073C2.7203 4.99935 2.21159 5.21006 1.83652 5.58513C1.46145 5.96021 1.25073 6.46892 1.25073 6.99935V12.3327ZM7.25074 1.66602L8.2274 2.75802C8.40168 2.94537 8.51837 3.17892 8.56354 3.43078C8.6087 3.68265 8.58044 3.94219 8.48213 4.17843C8.38382 4.41467 8.2196 4.61763 8.00908 4.76309C7.79857 4.90854 7.55064 4.99035 7.2949 4.99875C7.03915 5.00715 6.7864 4.94178 6.56679 4.81045C6.34718 4.67911 6.17001 4.48736 6.05641 4.25808C5.94281 4.0288 5.89758 3.77167 5.92613 3.51738C5.95468 3.2631 6.05579 3.0224 6.2174 2.82402L7.25074 1.66602Z" stroke="#1B85F3" stroke-width="1.5" stroke-linecap="round" stroke-linejoin="round"/>
</svg>
