<svg width="14" height="14" viewBox="0 0 14 14" fill="none" xmlns="http://www.w3.org/2000/svg">
<path d="M5.25 13V9C5.25 8.64638 5.39048 8.30724 5.64052 8.05719C5.89057 7.80714 6.22971 7.66667 6.58333 7.66667H7.91667C8.27029 7.66667 8.60943 7.80714 8.85948 8.05719C9.10952 8.30724 9.25 8.64638 9.25 9V13M2.58333 7H1.25L7.25 1L13.25 7H11.9167V11.6667C11.9167 12.0203 11.7762 12.3594 11.5261 12.6095C11.2761 12.8595 10.937 13 10.5833 13H3.91667C3.56304 13 3.22391 12.8595 2.97386 12.6095C2.72381 12.3594 2.58333 12.0203 2.58333 11.6667V7Z" stroke="#B3BECD" stroke-width="1.5" stroke-linecap="round" stroke-linejoin="round"/>
</svg>
