<svg width="24" height="21" viewBox="0 0 24 21" fill="none" xmlns="http://www.w3.org/2000/svg">
<rect y="3" width="24" height="1.5" rx="0.75" fill="#808B9A"/>
<path d="M8.26094 3.50059C8.26094 4.80881 7.20041 5.86934 5.89219 5.86934C4.58396 5.86934 3.52344 4.80881 3.52344 3.50059C3.52344 2.19236 4.58396 1.13184 5.89219 1.13184C7.20041 1.13184 8.26094 2.19236 8.26094 3.50059Z" fill="white" stroke="#808B9A"/>
<rect y="10" width="24" height="1.5" rx="0.75" fill="#808B9A"/>
<circle cx="17.8687" cy="10.8687" r="2.36875" fill="white" stroke="#808B9A"/>
<rect y="17" width="24" height="1.5" rx="0.75" fill="#808B9A"/>
<path d="M11.7375 17.8688C11.7375 19.177 10.677 20.2375 9.36875 20.2375C8.06053 20.2375 7 19.177 7 17.8688C7 16.5605 8.06053 15.5 9.36875 15.5C10.677 15.5 11.7375 16.5605 11.7375 17.8688Z" fill="white" stroke="#808B9A"/>
</svg>
