<svg width="60" height="60" viewBox="0 0 60 60" fill="none" xmlns="http://www.w3.org/2000/svg">
<g filter="url(#filter0_b_1200_11386)">
<rect width="60" height="60" rx="12" fill="#F1F9FF"/>
<rect x="0.5" y="0.5" width="59" height="59" rx="11.5" stroke="#DCF0FF"/>
<g clip-path="url(#clip0_1200_11386)">
<path d="M47.5197 16.6321L29.672 8.89844L11.8261 16.6321C11.8261 16.6321 7.92789 39.4911 29.3644 51.0832C29.4682 51.0312 29.5701 50.9792 29.672 50.9271C29.7739 50.9792 29.8758 51.0312 29.9795 51.0832C51.4179 39.493 47.5178 16.6321 47.5178 16.6321H47.5197Z" fill="#96D3FF"/>
<path d="M44.6028 18.8175L29.6732 12.3477L14.7436 18.8175C14.7436 18.8175 11.4828 37.9407 29.4157 47.637C29.5028 47.5943 29.588 47.5497 29.6732 47.5069C29.7585 47.5497 29.8437 47.5943 29.9308 47.637C47.8637 37.9407 44.6028 18.8175 44.6028 18.8175Z" fill="#DCF0FF"/>
<path d="M47.7541 16.2344C43.6225 14.4427 39.4889 12.6529 35.3573 10.8612C33.586 10.0936 31.8129 9.326 30.0417 8.55654C29.6767 8.39856 29.4395 8.49892 29.0986 8.64761C28.3464 8.97287 27.5942 9.29998 26.8401 9.62524C22.0192 11.7162 17.1983 13.8052 12.3792 15.8943C12.1199 16.0058 11.4399 16.1638 11.3806 16.517C11.3361 16.7827 11.3046 17.0504 11.2731 17.318C11.099 18.8253 11.0619 20.3475 11.099 21.8623C11.2287 27.0292 12.4163 32.1683 14.6785 36.8167C16.1607 39.8611 18.1599 42.6397 20.5129 45.0652C21.8098 46.4015 23.2383 47.604 24.7316 48.7117C25.5969 49.353 26.4973 49.9421 27.4144 50.5053C27.8943 50.799 28.3853 51.0777 28.8781 51.351C29.3265 51.6 29.4488 51.5628 29.9064 51.3324H29.4395C29.899 51.5647 30.0157 51.5963 30.4678 51.351C30.9625 51.0815 31.4479 50.7952 31.9315 50.5053C32.9264 49.905 33.888 49.2489 34.8237 48.5575C36.4393 47.3605 37.9437 46.0186 39.3222 44.5559C41.7549 41.9743 43.7225 38.9689 45.1751 35.7331C47.3354 30.9249 48.3266 25.6 48.2581 20.3345C48.2414 19.0632 48.1803 17.7697 47.9672 16.5132C47.8671 15.9241 46.9741 16.175 47.0742 16.7604C47.5077 19.3253 47.391 22.5797 47.0686 25.3342C46.3164 31.7557 43.7855 37.9318 39.5927 42.8646C36.8506 46.0892 33.4489 48.669 29.7489 50.6856H30.2158C29.7248 50.4365 29.6248 50.4365 29.132 50.6856H29.5989C22.638 46.8903 17.1186 41.045 14.282 33.579C12.5312 28.9715 11.8086 23.9532 12.0587 19.0335C12.0884 18.4443 12.1365 17.8551 12.2032 17.2678C12.2292 17.0429 12.231 17.0318 12.2495 16.9091C12.294 16.6062 12.2922 16.937 12.068 17.0336C13.5743 16.3813 15.0806 15.7289 16.5869 15.0747C21.002 13.1622 25.4172 11.2478 29.8323 9.3353C29.8582 9.32414 29.8823 9.31299 29.9083 9.30184H29.4414C35.3906 11.8797 41.3398 14.4576 47.2872 17.0355C47.8301 17.2697 48.3025 16.4705 47.7541 16.2326V16.2344Z" fill="#50B5FF"/>
<path d="M35.9724 34.7134C32.517 38.1797 26.9161 38.1797 23.4607 34.7134C20.0053 31.2471 20.0053 25.6285 23.4607 22.1622C26.9161 18.6959 32.517 18.6959 35.9724 22.1622C39.4278 25.6285 39.4278 31.2471 35.9724 34.7134Z" fill="#96D3FF"/>
<path d="M30.8095 34.737C30.8095 33.0011 30.8095 31.2633 30.8095 29.5273C32.54 29.5273 34.2723 29.5273 36.0028 29.5273C37.2145 29.5273 37.2145 27.6409 36.0028 27.6409C34.2723 27.6409 32.54 27.6409 30.8095 27.6409C30.8095 25.9049 30.8095 24.1671 30.8095 22.4312C30.8095 21.2156 28.929 21.2156 28.929 22.4312C28.929 24.1671 28.929 25.9049 28.929 27.6409H23.7356C22.5221 27.6409 22.5239 29.5273 23.7356 29.5273C25.4661 29.5273 27.1966 29.5273 28.929 29.5273C28.929 31.2633 28.929 33.0011 28.929 34.737C28.929 35.9525 30.8095 35.9525 30.8095 34.737Z" fill="white"/>
</g>
</g>
<defs>
<filter id="filter0_b_1200_11386" x="-60" y="-60" width="180" height="180" filterUnits="userSpaceOnUse" color-interpolation-filters="sRGB">
<feFlood flood-opacity="0" result="BackgroundImageFix"/>
<feGaussianBlur in="BackgroundImageFix" stdDeviation="30"/>
<feComposite in2="SourceAlpha" operator="in" result="effect1_backgroundBlur_1200_11386"/>
<feBlend mode="normal" in="SourceGraphic" in2="effect1_backgroundBlur_1200_11386" result="shape"/>
</filter>
<clipPath id="clip0_1200_11386">
<rect width="37.1739" height="43.0435" fill="white" transform="translate(11.0859 8.47656)"/>
</clipPath>
</defs>
</svg>
