<svg width="60" height="60" viewBox="0 0 60 60" fill="none" xmlns="http://www.w3.org/2000/svg">
<g filter="url(#filter0_b_1200_11364)">
<rect width="60" height="60" rx="12" fill="#FFFAEE"/>
<rect x="0.5" y="0.5" width="59" height="59" rx="11.5" stroke="#FFEEC6"/>
<g clip-path="url(#clip0_1200_11364)">
<path d="M20.9413 11.829C20.9413 12.8381 20.5768 13.657 19.5624 13.657C18.548 13.657 17.7344 12.8381 17.7344 11.829C17.7344 10.8199 18.5533 10.001 19.5624 10.001C20.5715 10.001 20.9413 10.8199 20.9413 11.829Z" fill="#FF974A"/>
<path d="M28.1855 11.829C28.1855 10.8199 28.5501 10.001 29.5645 10.001C30.5789 10.001 31.3925 10.8199 31.3925 11.829C31.3925 12.8381 30.5736 13.657 29.5645 13.657C28.5554 13.657 28.1855 12.8381 28.1855 11.829Z" fill="#FF974A"/>
<path d="M32.5282 25.2896C32.5282 27.6988 28.9514 30.3827 24.5609 30.3827C20.1705 30.3827 16.5937 27.7041 16.5937 25.2896L14.4434 23.8525C14.4434 26.9169 18.9817 30.8477 24.5609 30.8477C30.1401 30.8477 34.6785 26.9169 34.6785 23.8525L32.5229 25.2896H32.5282Z" fill="white"/>
<path d="M24.5609 34.2723C18.9817 34.2723 14.4434 29.7339 14.4434 24.1495V15.3052C14.4434 12.7956 16.488 10.751 18.9976 10.751V12.9066C17.6715 12.9066 16.599 13.9844 16.599 15.3052V24.1495C16.599 28.5399 20.1705 32.1167 24.5662 32.1167C28.9619 32.1167 32.5334 28.5452 32.5334 24.1495V15.3052C32.5334 13.9791 31.4556 12.9066 30.1348 12.9066V10.751C32.6444 10.751 34.689 12.7956 34.689 15.3052V24.1495C34.689 29.7287 30.1507 34.2723 24.5715 34.2723H24.5609Z" fill="#FFC542"/>
<path d="M33.6228 50.0025C28.0437 50.0025 23.5 45.4642 23.5 39.885V33.1963H25.6556V39.885C25.6556 44.2754 29.2271 47.8522 33.6228 47.8522C38.0186 47.8522 41.5901 44.2807 41.5901 39.885V33.1963H43.7457V39.885C43.7457 45.4642 39.2073 50.0025 33.6281 50.0025H33.6228Z" fill="#FFC542"/>
<path d="M45.4413 33.1366C45.4413 34.616 44.242 35.8206 42.7626 35.8206C41.2833 35.8206 40.084 34.6213 40.084 33.1366C40.084 31.652 41.2833 30.458 42.7626 30.458C44.242 30.458 45.4413 31.6573 45.4413 33.1366Z" fill="#FF974A"/>
<path d="M43.947 33.1376C43.947 33.7927 43.4187 34.321 42.7635 34.321C42.1084 34.321 41.5801 33.7927 41.5801 33.1376C41.5801 32.4824 42.1084 31.9541 42.7635 31.9541C43.4187 31.9541 43.947 32.4824 43.947 33.1376Z" fill="white"/>
</g>
</g>
<defs>
<filter id="filter0_b_1200_11364" x="-60" y="-60" width="180" height="180" filterUnits="userSpaceOnUse" color-interpolation-filters="sRGB">
<feFlood flood-opacity="0" result="BackgroundImageFix"/>
<feGaussianBlur in="BackgroundImageFix" stdDeviation="30"/>
<feComposite in2="SourceAlpha" operator="in" result="effect1_backgroundBlur_1200_11364"/>
<feBlend mode="normal" in="SourceGraphic" in2="effect1_backgroundBlur_1200_11364" result="shape"/>
</filter>
<clipPath id="clip0_1200_11364">
<rect width="30.9972" height="40" fill="white" transform="translate(14.4434 10.001)"/>
</clipPath>
</defs>
</svg>
