<svg width="54" height="54" viewBox="0 0 54 54" fill="none" xmlns="http://www.w3.org/2000/svg">
<g filter="url(#filter0_b_1200_12880)">
<rect width="54" height="54" rx="8" fill="#F1F9FF"/>
<rect x="0.5" y="0.5" width="53" height="53" rx="7.5" stroke="#DCF0FF"/>
<path d="M42.7907 15.3431L26.7278 8.38281L10.6665 15.3431C10.6665 15.3431 7.15814 35.9162 26.451 46.3491C26.5444 46.3023 26.6361 46.2555 26.7278 46.2086C26.8195 46.2555 26.9112 46.3023 27.0046 46.3491C46.2991 35.9179 42.7891 15.3431 42.7891 15.3431H42.7907Z" fill="#96D3FF"/>
<path d="M40.165 17.3072L26.7284 11.4844L13.2917 17.3072C13.2917 17.3072 10.357 34.5181 26.4966 43.2448C26.575 43.2063 26.6517 43.1662 26.7284 43.1277C26.8051 43.1662 26.8818 43.2063 26.9602 43.2448C43.0998 34.5181 40.165 17.3072 40.165 17.3072Z" fill="#DCF0FF"/>
<path d="M43.0014 14.9821C39.2829 13.3696 35.5627 11.7587 31.8442 10.1462C30.2501 9.45534 28.6543 8.7645 27.0602 8.07198C26.7317 7.9298 26.5182 8.02012 26.2114 8.15394C25.5344 8.44667 24.8574 8.74108 24.1787 9.03381C19.8399 10.9156 15.5011 12.7958 11.164 14.676C10.9305 14.7763 10.3186 14.9185 10.2652 15.2364C10.2252 15.4756 10.1968 15.7164 10.1685 15.9573C10.0117 17.3139 9.97839 18.6839 10.0117 20.0472C10.1285 24.6974 11.1973 29.3225 13.2333 33.5061C14.5673 36.246 16.3665 38.7468 18.4843 40.9297C19.6515 42.1324 20.9371 43.2147 22.2811 44.2117C23.0598 44.7888 23.8702 45.319 24.6957 45.8259C25.1275 46.0901 25.5694 46.3411 26.013 46.587C26.4165 46.8111 26.5266 46.7777 26.9384 46.5702H26.5182C26.9318 46.7793 27.0368 46.8078 27.4437 46.587C27.8889 46.3444 28.3258 46.0868 28.761 45.8259C29.6564 45.2856 30.5219 44.6951 31.3639 44.0728C32.818 42.9956 34.172 41.7878 35.4126 40.4714C37.602 38.148 39.3729 35.4431 40.6802 32.5309C42.6245 28.2035 43.5166 23.4111 43.4549 18.6722C43.4399 17.528 43.3849 16.3638 43.1931 15.233C43.1031 14.7027 42.2994 14.9286 42.3894 15.4555C42.7796 17.7639 42.6745 20.6928 42.3844 23.1719C41.7074 28.9512 39.4296 34.5097 35.6561 38.9492C33.1882 41.8514 30.1267 44.1732 26.7967 45.9881H27.2169C26.775 45.764 26.685 45.764 26.2414 45.9881H26.6616C20.3969 42.5724 15.4294 37.3116 12.8765 30.5922C11.3007 26.4454 10.6504 21.929 10.8755 17.5012C10.9022 16.971 10.9455 16.4407 11.0056 15.9121C11.0289 15.7097 11.0306 15.6997 11.0472 15.5893C11.0873 15.3166 11.0856 15.6144 10.8838 15.7014C12.2395 15.1142 13.5952 14.5271 14.9508 13.9383C18.9245 12.217 22.8981 10.4941 26.8717 8.77286C26.8951 8.76282 26.9168 8.75279 26.9401 8.74275H26.5199C31.8742 11.0628 37.2285 13.3829 42.5812 15.703C43.0697 15.9138 43.4949 15.1945 43.0014 14.9804V14.9821Z" fill="#50B5FF"/>
<path d="M32.3967 31.6163C29.2868 34.736 24.246 34.736 21.1361 31.6163C18.0262 28.4966 18.0262 23.4399 21.1361 20.3202C24.246 17.2006 29.2868 17.2006 32.3967 20.3202C35.5065 23.4399 35.5065 28.4966 32.3967 31.6163Z" fill="#96D3FF"/>
<path d="M27.7495 31.6379C27.7495 30.0756 27.7495 28.5116 27.7495 26.9492C29.3069 26.9492 30.866 26.9492 32.4234 26.9492C33.514 26.9492 33.514 25.2514 32.4234 25.2514C30.866 25.2514 29.3069 25.2514 27.7495 25.2514C27.7495 23.689 27.7495 22.125 27.7495 20.5627C27.7495 19.4687 26.057 19.4687 26.057 20.5627C26.057 22.125 26.057 23.689 26.057 25.2514H21.383C20.2908 25.2514 20.2924 26.9492 21.383 26.9492C22.9404 26.9492 24.4979 26.9492 26.057 26.9492C26.057 28.5116 26.057 30.0756 26.057 31.6379C26.057 32.7319 27.7495 32.7319 27.7495 31.6379Z" fill="white"/>
</g>
<defs>
<filter id="filter0_b_1200_12880" x="-54" y="-54" width="162" height="162" filterUnits="userSpaceOnUse" color-interpolation-filters="sRGB">
<feFlood flood-opacity="0" result="BackgroundImageFix"/>
<feGaussianBlur in="BackgroundImageFix" stdDeviation="27"/>
<feComposite in2="SourceAlpha" operator="in" result="effect1_backgroundBlur_1200_12880"/>
<feBlend mode="normal" in="SourceGraphic" in2="effect1_backgroundBlur_1200_12880" result="shape"/>
</filter>
</defs>
</svg>
