<svg width="60" height="60" viewBox="0 0 38 44" fill="none" xmlns="http://www.w3.org/2000/svg">
<g clip-path="url(#clip0_1200_11323)">
<path d="M36.5197 8.63601L18.672 0.902344L0.826105 8.63601C0.826105 8.63601 -3.07211 31.495 18.3644 43.0871C18.4682 43.0351 18.5701 42.9831 18.672 42.931C18.7739 42.9831 18.8758 43.0351 18.9795 43.0871C40.4179 31.4969 36.5178 8.63601 36.5178 8.63601H36.5197Z" fill="#96D3FF"/>
<path d="M33.6028 10.8194L18.6732 4.34961L3.74364 10.8194C3.74364 10.8194 0.482769 29.9426 18.4157 39.639C18.5028 39.5962 18.588 39.5516 18.6732 39.5089C18.7585 39.5516 18.8437 39.5962 18.9308 39.639C36.8637 29.9426 33.6028 10.8194 33.6028 10.8194Z" fill="#DCF0FF"/>
<path d="M36.7541 8.23444C32.6225 6.44275 28.4889 4.65291 24.3573 2.86121C22.586 2.09361 20.8129 1.326 19.0417 0.556539C18.6767 0.398557 18.4395 0.498922 18.0986 0.647611C17.3464 0.972867 16.5942 1.29998 15.8401 1.62524C11.0192 3.71617 6.19829 5.80525 1.37924 7.89432C1.11985 8.00584 0.439888 8.16382 0.3806 8.51695C0.336133 8.78273 0.304636 9.05037 0.273139 9.31801C0.098979 10.8253 0.0619237 12.3475 0.098979 13.8623C0.228673 19.0292 1.4163 24.1683 3.67852 28.8167C5.16074 31.8611 7.15987 34.6397 9.51289 37.0652C10.8098 38.4015 12.2383 39.604 13.7316 40.7117C14.5969 41.353 15.4973 41.9421 16.4144 42.5053C16.8943 42.799 17.3853 43.0777 17.8781 43.351C18.3265 43.6 18.4488 43.5628 18.9064 43.3324H18.4395C18.899 43.5647 19.0157 43.5963 19.4678 43.351C19.9625 43.0815 20.4479 42.7952 20.9315 42.5053C21.9264 41.905 22.888 41.2489 23.8237 40.5575C25.4393 39.3605 26.9437 38.0186 28.3222 36.5559C30.7549 33.9743 32.7225 30.9689 34.1751 27.7331C36.3354 22.9249 37.3266 17.6 37.2581 12.3345C37.2414 11.0632 37.1803 9.76965 36.9672 8.51324C36.8671 7.92406 35.9741 8.17497 36.0742 8.76043C36.5077 11.3253 36.391 14.5797 36.0686 17.3342C35.3164 23.7557 32.7855 29.9318 28.5927 34.8646C25.8506 38.0892 22.4489 40.669 18.7489 42.6856H19.2158C18.7248 42.4365 18.6248 42.4365 18.132 42.6856H18.5989C11.638 38.8903 6.11862 33.045 3.28203 25.579C1.53117 20.9715 0.808589 15.9532 1.05871 11.0335C1.08836 10.4443 1.13653 9.85515 1.20323 9.26783C1.22917 9.04294 1.23102 9.03179 1.24955 8.90912C1.29401 8.60617 1.29216 8.937 1.06798 9.03364C2.57428 8.38127 4.08057 7.7289 5.58687 7.07467C10.002 5.16217 14.4172 3.2478 18.8323 1.3353C18.8582 1.32414 18.8823 1.31299 18.9083 1.30184H18.4414C24.3906 3.87973 30.3398 6.45762 36.2872 9.0355C36.8301 9.26969 37.3025 8.47049 36.7541 8.23259V8.23444Z" fill="#50B5FF"/>
<path d="M24.9724 26.7173C21.517 30.1836 15.9161 30.1836 12.4607 26.7173C9.00529 23.251 9.00529 17.6324 12.4607 14.1661C15.9161 10.6998 21.517 10.6998 24.9724 14.1661C28.4278 17.6324 28.4278 23.251 24.9724 26.7173Z" fill="#96D3FF"/>
<path d="M19.8076 26.7409C19.8076 25.005 19.8076 23.2672 19.8076 21.5312C21.538 21.5312 23.2704 21.5312 25.0009 21.5312C26.2126 21.5312 26.2126 19.6448 25.0009 19.6448C23.2704 19.6448 21.538 19.6448 19.8076 19.6448C19.8076 17.9088 19.8076 16.171 19.8076 14.4351C19.8076 13.2196 17.927 13.2196 17.927 14.4351C17.927 16.171 17.927 17.9088 17.927 19.6448H12.7337C11.5201 19.6448 11.522 21.5312 12.7337 21.5312C14.4642 21.5312 16.1947 21.5312 17.927 21.5312C17.927 23.2672 17.927 25.005 17.927 26.7409C17.927 27.9564 19.8076 27.9564 19.8076 26.7409Z" fill="white"/>
</g>
<defs>
<clipPath id="clip0_1200_11323">
<rect width="37.1739" height="43.0435" fill="white" transform="translate(0.0859375 0.478516)"/>
</clipPath>
</defs>
</svg>
