<svg width="54" height="54" viewBox="0 0 54 54" fill="none" xmlns="http://www.w3.org/2000/svg">
<g filter="url(#filter0_b_1200_12845)">
<rect width="54" height="54" rx="8" fill="#FFFAEE"/>
<rect x="0.5" y="0.5" width="53" height="53" rx="7.5" stroke="#FFEEC6"/>
<path d="M18.8482 10.6452C18.8482 11.5534 18.5201 12.2905 17.6071 12.2905C16.6942 12.2905 15.9619 11.5534 15.9619 10.6452C15.9619 9.73702 16.6989 9 17.6071 9C18.5153 9 18.8482 9.73702 18.8482 10.6452Z" fill="#FF974A"/>
<path d="M25.3672 10.6452C25.3672 9.73702 25.6953 9 26.6082 9C27.5212 9 28.2535 9.73702 28.2535 10.6452C28.2535 11.5534 27.5164 12.2905 26.6082 12.2905C25.7 12.2905 25.3672 11.5534 25.3672 10.6452Z" fill="#FF974A"/>
<path d="M29.2763 22.7621C29.2763 24.9304 26.0572 27.3459 22.1058 27.3459C18.1544 27.3459 14.9353 24.9351 14.9353 22.7621L13 21.4688C13 24.2266 17.0845 27.7644 22.1058 27.7644C27.1271 27.7644 31.2116 24.2266 31.2116 21.4688L29.2716 22.7621H29.2763Z" fill="white"/>
<path d="M22.1058 30.845C17.0845 30.845 13 26.7604 13 21.7344V13.7746C13 11.516 14.8402 9.67578 17.0988 9.67578V11.6158C15.9053 11.6158 14.94 12.5858 14.94 13.7746V21.7344C14.94 25.6858 18.1544 28.9049 22.1106 28.9049C26.0667 28.9049 29.2811 25.6906 29.2811 21.7344V13.7746C29.2811 12.5811 28.3111 11.6158 27.1223 11.6158V9.67578C29.3809 9.67578 31.2211 11.516 31.2211 13.7746V21.7344C31.2211 26.7557 27.1366 30.845 22.1153 30.845H22.1058Z" fill="#FFC542"/>
<path d="M30.2609 45.0006C25.2397 45.0006 21.1504 40.9161 21.1504 35.8948V29.875H23.0904V35.8948C23.0904 39.8462 26.3048 43.0653 30.2609 43.0653C34.2171 43.0653 37.4315 39.851 37.4315 35.8948V29.875H39.3715V35.8948C39.3715 40.9161 35.287 45.0006 30.2657 45.0006H30.2609Z" fill="#FFC542"/>
<path d="M40.8977 29.8229C40.8977 31.1543 39.8183 32.2384 38.4869 32.2384C37.1556 32.2384 36.0762 31.159 36.0762 29.8229C36.0762 28.4867 37.1556 27.4121 38.4869 27.4121C39.8183 27.4121 40.8977 28.4915 40.8977 29.8229Z" fill="#FF974A"/>
<path d="M39.5521 29.8229C39.5521 30.4125 39.0766 30.888 38.487 30.888C37.8974 30.888 37.4219 30.4125 37.4219 29.8229C37.4219 29.2333 37.8974 28.7578 38.487 28.7578C39.0766 28.7578 39.5521 29.2333 39.5521 29.8229Z" fill="white"/>
</g>
<defs>
<filter id="filter0_b_1200_12845" x="-54" y="-54" width="162" height="162" filterUnits="userSpaceOnUse" color-interpolation-filters="sRGB">
<feFlood flood-opacity="0" result="BackgroundImageFix"/>
<feGaussianBlur in="BackgroundImageFix" stdDeviation="27"/>
<feComposite in2="SourceAlpha" operator="in" result="effect1_backgroundBlur_1200_12845"/>
<feBlend mode="normal" in="SourceGraphic" in2="effect1_backgroundBlur_1200_12845" result="shape"/>
</filter>
</defs>
</svg>
