<svg width="60" height="60" viewBox="0 0 36 46" fill="none" xmlns="http://www.w3.org/2000/svg">
<g clip-path="url(#clip0_1200_11300)">
<path d="M8.94135 4.829C8.94135 5.83812 8.5768 6.65703 7.5624 6.65703C6.54801 6.65703 5.73438 5.83812 5.73438 4.829C5.73438 3.81989 6.55329 3.00098 7.5624 3.00098C8.57152 3.00098 8.94135 3.81989 8.94135 4.829Z" fill="#FF974A"/>
<path d="M16.1855 4.829C16.1855 3.81989 16.5501 3.00098 17.5645 3.00098C18.5789 3.00098 19.3925 3.81989 19.3925 4.829C19.3925 5.83812 18.5736 6.65703 17.5645 6.65703C16.5554 6.65703 16.1855 5.83812 16.1855 4.829Z" fill="#FF974A"/>
<path d="M20.5262 18.2916C20.5262 20.7007 16.9494 23.3847 12.559 23.3847C8.16852 23.3847 4.59172 20.706 4.59172 18.2916L2.44141 16.8545C2.44141 19.9188 6.97978 23.8496 12.559 23.8496C18.1381 23.8496 22.6765 19.9188 22.6765 16.8545L20.5209 18.2916H20.5262Z" fill="white"/>
<path d="M12.559 27.2723C6.97978 27.2723 2.44141 22.7339 2.44141 17.1495V8.3052C2.44141 5.79562 4.48605 3.75098 6.99563 3.75098V5.90657C5.66951 5.90657 4.597 6.98437 4.597 8.3052V17.1495C4.597 21.5399 8.16852 25.1167 12.5642 25.1167C16.96 25.1167 20.5315 21.5452 20.5315 17.1495V8.3052C20.5315 6.97908 19.4537 5.90657 18.1329 5.90657V3.75098C20.6424 3.75098 22.6871 5.79562 22.6871 8.3052V17.1495C22.6871 22.7287 18.1487 27.2723 12.5695 27.2723H12.559Z" fill="#FFC542"/>
<path d="M21.6209 43.0006C16.0417 43.0006 11.498 38.4622 11.498 32.883V26.1943H13.6536V32.883C13.6536 37.2735 17.2252 40.8503 21.6209 40.8503C26.0166 40.8503 29.5881 37.2787 29.5881 32.883V26.1943H31.7437V32.883C31.7437 38.4622 27.2054 43.0006 21.6262 43.0006H21.6209Z" fill="#FFC542"/>
<path d="M33.4393 26.1366C33.4393 27.616 32.24 28.8206 30.7607 28.8206C29.2813 28.8206 28.082 27.6213 28.082 26.1366C28.082 24.652 29.2813 23.458 30.7607 23.458C32.24 23.458 33.4393 24.6573 33.4393 26.1366Z" fill="#FF974A"/>
<path d="M31.9451 26.1376C31.9451 26.7927 31.4167 27.321 30.7616 27.321C30.1065 27.321 29.5781 26.7927 29.5781 26.1376C29.5781 25.4824 30.1065 24.9541 30.7616 24.9541C31.4167 24.9541 31.9451 25.4824 31.9451 26.1376Z" fill="white"/>
</g>
<defs>
<clipPath id="clip0_1200_11300">
<rect width="30.9972" height="40" fill="white" transform="translate(2.44141 3.00098)"/>
</clipPath>
</defs>
</svg>
