<svg width="60" height="60" viewBox="0 0 40 41" fill="none" xmlns="http://www.w3.org/2000/svg">
<path d="M9.95848 30.9397L0.393267 40.5104L0.222656 38.3915L8.81924 29.7949L9.95848 30.9397Z" fill="#31AA7A"/>
<path d="M33.3636 3.53678L24.1016 12.7988L26.9619 15.6592L36.2239 6.39712L33.3636 3.53678Z" fill="#31AA7A"/>
<path d="M29.5959 18.2763L14.6591 33.213L8.65474 31.1052L6.54688 25.1008L21.4836 10.1641L29.5959 18.2763Z" fill="#9EEACC"/>
<path d="M14.1747 31.1002L18.5611 26.7138L13.0465 21.1992L8.66016 25.5856L10.0966 29.6637L14.1747 31.1002Z" fill="white"/>
<path d="M14.0191 20.225L12.875 21.3691L18.3894 26.8836L19.5336 25.7394L14.0191 20.225Z" fill="#31AA7A"/>
<path d="M31.3511 0.517009L30.3203 1.54883L38.2205 9.44078L39.2513 8.40896L31.3511 0.517009Z" fill="#31AA7A"/>
<path d="M8.09635 29.5599L5.67188 31.9844L7.76557 34.0781L10.19 31.6536L8.09635 29.5599Z" fill="#31AA7A"/>
<path d="M24.6136 12.2829L15.3477 21.5488L18.208 24.4092L27.4739 15.1432L24.6136 12.2829Z" fill="#31AA7A"/>
<path d="M19.4233 7.09709L18.3926 8.12891L31.6388 21.3613L32.6695 20.3294L19.4233 7.09709Z" fill="#31AA7A"/>
</svg>
