<svg width="21" height="21" viewBox="0 0 21 21" fill="none" xmlns="http://www.w3.org/2000/svg">
<path d="M13.0002 7.08822H13.0085M3.8335 12.9215L7.16683 9.58818C7.54688 9.22247 7.97799 9.02995 8.41683 9.02995C8.85567 9.02995 9.28678 9.22247 9.66683 9.58818L13.8335 13.7548M12.1668 12.0882L13.0002 11.2548C13.3802 10.8891 13.8113 10.6966 14.2502 10.6966C14.689 10.6966 15.1201 10.8891 15.5002 11.2548L17.1668 12.9215M6.3335 3.75488H14.6668C16.0475 3.75488 17.1668 4.87417 17.1668 6.25488V14.5882C17.1668 15.9689 16.0475 17.0882 14.6668 17.0882H6.3335C4.95278 17.0882 3.8335 15.9689 3.8335 14.5882V6.25488C3.8335 4.87417 4.95278 3.75488 6.3335 3.75488Z" stroke="#1B85F3" stroke-width="1.5" stroke-linecap="round" stroke-linejoin="round"/>
</svg>
