<svg width="96" height="96" viewBox="0 0 96 96" fill="none" xmlns="http://www.w3.org/2000/svg">
<path d="M60 32H60.04M16 59.9998L32 43.9998C33.8242 42.2444 35.8936 41.3203 38 41.3203C40.1064 41.3203 42.1758 42.2444 44 43.9998L64 63.9998M56 55.9998L60 51.9998C61.8242 50.2444 63.8936 49.3203 66 49.3203C68.1064 49.3203 70.1758 50.2444 72 51.9998L80 59.9998M28 16H68C74.6274 16 80 21.3726 80 28V68C80 74.6274 74.6274 80 68 80H28C21.3726 80 16 74.6274 16 68V28C16 21.3726 21.3726 16 28 16Z" stroke="white" stroke-width="4" stroke-linecap="round" stroke-linejoin="round"/>
</svg>
