<svg xmlns="http://www.w3.org/2000/svg" width="20" height="20" viewBox="0 0 20 20" fill="none">
  <path d="M5 15.8333C6.38071 15.8333 7.5 14.714 7.5 13.3333C7.5 11.9526 6.38071 10.8333 5 10.8333C3.61929 10.8333 2.5 11.9526 2.5 13.3333C2.5 14.714 3.61929 15.8333 5 15.8333Z" stroke="white" stroke-width="1.5" stroke-linecap="round" stroke-linejoin="round"/>
  <path d="M13.3333 17.5C14.2538 17.5 15 16.7538 15 15.8333C15 14.9129 14.2538 14.1667 13.3333 14.1667C12.4129 14.1667 11.6667 14.9129 11.6667 15.8333C11.6667 16.7538 12.4129 17.5 13.3333 17.5Z" stroke="white" stroke-width="1.5" stroke-linecap="round" stroke-linejoin="round"/>
  <path d="M12.0833 10C14.1544 10 15.8333 8.32107 15.8333 6.25C15.8333 4.17893 14.1544 2.5 12.0833 2.5C10.0123 2.5 8.33333 4.17893 8.33333 6.25C8.33333 8.32107 10.0123 10 12.0833 10Z" stroke="white" stroke-width="1.5" stroke-linecap="round" stroke-linejoin="round"/>
</svg>