<svg width="21" height="16" viewBox="0 0 21 16" fill="none" xmlns="http://www.w3.org/2000/svg">
<path fill-rule="evenodd" clip-rule="evenodd" d="M11.1951 2C8.94292 2 6.90153 2.95857 5.406 4.51411C3.75464 6.23173 3.75464 9.01827 5.406 10.7359C6.90153 12.2914 8.94292 13.25 11.1951 13.25C13.4473 13.25 15.4886 12.2914 16.9842 10.7359C18.6355 9.01827 18.6355 6.23173 16.9842 4.51411C15.4886 2.95857 13.4473 2 11.1951 2ZM11.1951 11.375C9.25581 11.375 7.6819 9.695 7.6819 7.625C7.6819 5.555 9.25581 3.875 11.1951 3.875C13.1344 3.875 14.7083 5.555 14.7083 7.625C14.7083 9.695 13.1344 11.375 11.1951 11.375ZM11.1951 5.375C10.0287 5.375 9.08718 6.38 9.08718 7.625C9.08718 8.87 10.0287 9.875 11.1951 9.875C12.3615 9.875 13.303 8.87 13.303 7.625C13.303 6.38 12.3615 5.375 11.1951 5.375Z" fill="#CCCCCC"/>
<mask id="mask0_1854_2646" style="mask-type:luminance" maskUnits="userSpaceOnUse" x="4" y="2" width="15" height="12">
<path fill-rule="evenodd" clip-rule="evenodd" d="M11.1951 2C8.94292 2 6.90153 2.95857 5.406 4.51411C3.75464 6.23173 3.75464 9.01827 5.406 10.7359C6.90153 12.2914 8.94292 13.25 11.1951 13.25C13.4473 13.25 15.4886 12.2914 16.9842 10.7359C18.6355 9.01827 18.6355 6.23173 16.9842 4.51411C15.4886 2.95857 13.4473 2 11.1951 2ZM11.1951 11.375C9.25581 11.375 7.6819 9.695 7.6819 7.625C7.6819 5.555 9.25581 3.875 11.1951 3.875C13.1344 3.875 14.7083 5.555 14.7083 7.625C14.7083 9.695 13.1344 11.375 11.1951 11.375ZM11.1951 5.375C10.0287 5.375 9.08718 6.38 9.08718 7.625C9.08718 8.87 10.0287 9.875 11.1951 9.875C12.3615 9.875 13.303 8.87 13.303 7.625C13.303 6.38 12.3615 5.375 11.1951 5.375Z" fill="white"/>
</mask>
<g mask="url(#mask0_1854_2646)">
</g>
<line y1="-0.5" x2="24.9375" y2="-0.5" transform="matrix(0.798871 -0.601503 0.718829 0.695187 1 16)" stroke="#CCCCCC"/>
</svg>
