<svg width="58" height="53" viewBox="0 0 58 53" fill="none" xmlns="http://www.w3.org/2000/svg">
<path d="M30.8154 11.8725V11.9409C30.8145 13.28 31.0469 14.6092 31.5024 15.8699L31.4756 15.7882C31.9184 17.0168 32.6707 18.113 33.6612 18.9729L33.6702 18.9796C34.6091 19.8166 35.858 20.3268 37.2274 20.3268H37.3345H37.33C39.1367 20.3165 40.8668 19.6034 42.1474 18.3413C43.5463 17.0697 44.6346 15.4996 45.3299 13.7497L45.3589 13.6658C46.0329 12.0121 46.3877 10.2479 46.4049 8.4647V8.3874C46.4049 7.00927 46.1618 5.68636 45.718 4.45841L45.7448 4.54012C45.302 3.31156 44.5496 2.21535 43.5591 1.35541L43.5502 1.34878C42.5423 0.450802 41.2256 -0.0312277 39.8703 0.0015703H39.877C38.0698 0.0092194 36.3386 0.722715 35.0596 1.98705C33.6747 3.25854 32.5955 4.82157 31.9016 6.56094L31.8726 6.64486C31.228 8.19084 30.8467 9.98639 30.8266 11.8659V11.8725H30.8154ZM42.7361 28.5426L42.7339 28.7281C42.7312 30.3889 43.2495 32.0095 44.217 33.366L44.1992 33.3395C44.6404 33.9689 45.2288 34.4832 45.9143 34.8386C46.5998 35.194 47.3619 35.3798 48.1356 35.3802L48.3564 35.3758H48.3452C50.1733 35.3559 51.9303 34.6721 53.283 33.4544L53.2763 33.461C54.7153 32.2404 55.8793 30.734 56.6926 29.0394C57.506 27.3448 57.9507 25.4998 57.9978 23.6241V23.6065L58 23.4254C58 21.6917 57.4514 20.0838 56.5169 18.7653L56.5347 18.7918C56.0757 18.1273 55.4529 17.5899 54.7254 17.2304C53.9979 16.871 53.1897 16.7015 52.3775 16.7379H52.3887C50.5606 16.7578 48.8036 17.4415 47.4509 18.6593L47.4576 18.6527C46.0163 19.8805 44.8514 21.3942 44.0381 23.0959C43.2248 24.7976 42.7812 26.6494 42.7361 28.5315V28.547V28.5426ZM28.9956 27.6106C25.7394 27.7866 22.621 28.9691 20.079 30.9918L20.1102 30.9675C16.9987 33.1558 14.3176 35.8894 12.1995 39.0331L12.1281 39.1458C10.219 41.6857 9.10327 44.7239 8.91881 47.885L8.91658 47.9291L8.91212 48.1213C8.91212 49.0135 9.13292 49.8572 9.52321 50.5971L9.50983 50.5683C9.8843 51.2468 10.4692 51.788 11.1781 52.1121L11.2004 52.1209C11.8494 52.4279 12.6054 52.6687 13.3949 52.8034L13.4485 52.81C14.2717 52.9386 15.104 53.0021 15.9374 52.9999H16.1047H16.0958C18.3937 52.8493 20.6482 52.3069 22.7598 51.3965L22.6304 51.4473C24.6245 50.5863 26.7505 50.0629 28.9197 49.8992L28.9889 49.8947C31.4488 50.0758 33.7282 50.6236 35.8469 51.4827L35.6975 51.4297C37.9068 52.3084 40.2455 52.826 42.6224 52.9624L42.6848 52.9646C46.9461 52.9676 49.0768 51.2898 49.0768 47.9313C48.9802 45.5781 48.2967 43.2851 47.0874 41.2571L47.1253 41.3234C45.8205 38.8934 44.1812 36.6546 42.2544 34.6713L42.2633 34.6801C40.38 32.7322 38.2263 31.0598 35.867 29.7131L35.7287 29.6402C33.7137 28.3951 31.4047 27.6939 29.0312 27.6061H29.0045L28.9956 27.6106ZM20.6656 20.329H20.7681C22.0834 20.3304 23.3524 19.8488 24.3299 18.9774L24.3254 18.9818C25.3081 18.1346 26.0571 17.0539 26.5021 15.8412L26.52 15.7882C26.9624 14.553 27.1865 13.2515 27.1824 11.9409V11.8681V11.8725C27.1623 9.98418 26.7809 8.19084 26.1007 6.54769L26.1364 6.64486C25.4453 4.87613 24.3579 3.28578 22.956 1.99368L22.9471 1.98705C21.6677 0.72487 19.9379 0.0123755 18.132 0.00377884H18.0272C16.6578 0.00377884 15.4088 0.516161 14.4655 1.35541L14.4699 1.35099C13.4931 2.19686 12.7392 3.27021 12.2932 4.49154L12.2753 4.54454C11.8494 5.6974 11.604 7.02915 11.604 8.41611V8.46029V8.45808C11.6234 10.2788 11.9904 12.0796 12.6857 13.7652L12.65 13.668C13.3416 15.4464 14.4375 17.0432 15.8527 18.3347L15.8616 18.3435C17.1428 19.6025 18.8718 20.313 20.6767 20.3224H20.6789L20.6656 20.329ZM5.61135 16.7423L5.40616 16.7379C3.77584 16.7379 2.33733 17.5462 1.47646 18.7808L1.4653 18.7963C0.507168 20.1556 -0.00449371 21.7743 2.67029e-05 23.432L0.00226212 23.6219V23.6131C0.0461807 25.4876 0.487621 27.3321 1.29794 29.0267C2.10826 30.7214 3.26936 32.2284 4.70586 33.4499L4.72371 33.4654C6.0743 34.6786 7.82696 35.3598 9.65033 35.3802H9.6548C10.4602 35.416 11.2617 35.2496 11.9846 34.8962C12.7076 34.5429 13.3285 34.0142 13.7897 33.3594L13.8008 33.3439C14.7971 31.9392 15.3101 30.2541 15.2639 28.5381V28.547C15.2212 26.6658 14.7805 24.8145 13.9703 23.1125C13.1601 21.4105 11.9984 19.8957 10.5603 18.666L10.5424 18.6505C9.19336 17.4411 7.44439 16.7616 5.62473 16.7401H5.62027L5.61135 16.7423Z" fill="#003459"/>
</svg>
