<svg width="107" height="21" viewBox="0 0 107 21" fill="none" xmlns="http://www.w3.org/2000/svg">
    <path d="M12.3115 4.70419V4.73132C12.3111 5.26188 12.4039 5.78853 12.5859 6.28809L12.5752 6.25571C12.7521 6.7425 13.0527 7.17685 13.4484 7.51758L13.452 7.52021C13.8271 7.85186 14.3261 8.05401 14.8732 8.05401H14.916H14.9142C15.636 8.04994 16.3273 7.76739 16.8388 7.26731C17.3977 6.76347 17.8326 6.14133 18.1104 5.44801L18.1219 5.41476C18.3912 4.75952 18.533 4.0605 18.5398 3.35394V3.32331C18.5398 2.77726 18.4427 2.25308 18.2654 1.76654L18.2761 1.79892C18.0992 1.31213 17.7986 0.877779 17.4029 0.537048L17.3993 0.534423C16.9966 0.17862 16.4706 -0.0123732 15.9291 0.000622194H15.9318C15.2098 0.00365297 14.5181 0.286359 14.0071 0.787321C13.4538 1.29112 13.0226 1.91043 12.7454 2.59962L12.7338 2.63287C12.4763 3.24543 12.3239 3.95687 12.3159 4.70157V4.70419H12.3115ZM17.0741 11.3093L17.0732 11.3828C17.0721 12.0409 17.2792 12.683 17.6657 13.2205L17.6586 13.21C17.8349 13.4594 18.07 13.6632 18.3438 13.804C18.6177 13.9448 18.9222 14.0184 19.2313 14.0186L19.3195 14.0168H19.315C20.0454 14.0089 20.7474 13.738 21.2878 13.2555L21.2851 13.2581C21.8601 12.7745 22.3251 12.1776 22.65 11.5062C22.975 10.8347 23.1526 10.1037 23.1715 9.36051V9.35351L23.1724 9.28175C23.1724 8.59481 22.9532 7.95775 22.5798 7.43532L22.5869 7.44583C22.4036 7.18253 22.1547 6.96958 21.8641 6.82716C21.5734 6.68474 21.2505 6.61756 20.9261 6.632H20.9305C20.2002 6.63989 19.4982 6.9108 18.9577 7.39332L18.9604 7.3907C18.3846 7.87718 17.9192 8.47694 17.5942 9.1512C17.2693 9.82546 17.0921 10.5592 17.0741 11.3049V11.3111V11.3093ZM11.5844 10.94C10.2835 11.0098 9.03758 11.4783 8.022 12.2798L8.03448 12.2702C6.79134 13.1372 5.7202 14.2203 4.87395 15.466L4.84544 15.5106C4.0827 16.517 3.63693 17.7208 3.56323 18.9733L3.56234 18.9908L3.56056 19.0669C3.56056 19.4205 3.64877 19.7547 3.8047 20.0479L3.79936 20.0365C3.94897 20.3053 4.18264 20.5198 4.46586 20.6482L4.47477 20.6517C4.73406 20.7733 5.03612 20.8687 5.35155 20.9221L5.37294 20.9247C5.70185 20.9757 6.03436 21.0008 6.36734 21H6.43417H6.4306C7.3487 20.9403 8.24941 20.7254 9.09303 20.3647L9.04135 20.3848C9.83805 20.0436 10.6874 19.8362 11.5541 19.7714L11.5817 19.7696C12.5645 19.8414 13.4752 20.0584 14.3217 20.3988L14.262 20.3778C15.1446 20.726 16.079 20.9311 17.0286 20.9851L17.0536 20.986C18.7561 20.9871 19.6073 20.3224 19.6073 18.9917C19.5687 18.0592 19.2957 17.1507 18.8125 16.3472L18.8276 16.3734C18.3064 15.4106 17.6514 14.5235 16.8816 13.7377L16.8852 13.7412C16.1328 12.9694 15.2723 12.3067 14.3297 11.7731L14.2744 11.7442C13.4694 11.2509 12.5469 10.9731 11.5986 10.9383H11.5879L11.5844 10.94ZM8.25634 8.05488H8.29733C8.8228 8.05544 9.32981 7.86462 9.72032 7.51933L9.71854 7.52108C10.1111 7.1854 10.4104 6.75719 10.5882 6.27671L10.5953 6.25571C10.7721 5.7663 10.8616 5.25061 10.86 4.73132V4.70244V4.70419C10.8519 3.956 10.6996 3.24543 10.4278 2.59437L10.4421 2.63287C10.166 1.93205 9.73153 1.30191 9.17144 0.789947L9.16788 0.787321C8.65674 0.287213 7.96562 0.0049035 7.24412 0.00149728H7.20224C6.65514 0.00149728 6.15616 0.204516 5.77925 0.537048L5.78103 0.535298C5.39076 0.870454 5.08959 1.29574 4.91138 1.77967L4.90425 1.80067C4.73406 2.25746 4.63605 2.78514 4.63605 3.33469V3.35219V3.35131C4.64376 4.07275 4.79039 4.78624 5.0682 5.45414L5.05395 5.41563C5.33026 6.12028 5.76808 6.75298 6.33348 7.26468L6.33704 7.26818C6.84891 7.76701 7.5397 8.04856 8.2608 8.05226H8.26169L8.25634 8.05488ZM2.24182 6.63375L2.15984 6.632C1.50849 6.632 0.933773 6.95228 0.589832 7.44145L0.585375 7.44758C0.202578 7.98616 -0.00184441 8.62756 -3.8147e-05 9.28437L0.000854492 9.35963V9.35613C0.0184021 10.0989 0.194767 10.8297 0.518511 11.5012C0.842253 12.1726 1.30614 12.7697 1.88006 13.2537L1.88719 13.2599C2.42678 13.7406 3.12701 14.0105 3.85549 14.0186H3.85728C4.17905 14.0328 4.49926 13.9668 4.7881 13.8268C5.07693 13.6868 5.32502 13.4773 5.50927 13.2179L5.51372 13.2117C5.91177 12.6552 6.11673 11.9875 6.09824 11.3076V11.3111C6.08118 10.5657 5.90512 9.83215 5.58143 9.15778C5.25774 8.4834 4.79362 7.8832 4.21904 7.39595L4.21191 7.38982C3.67292 6.91061 2.97417 6.6414 2.24717 6.63287H2.24538L2.24182 6.63375Z" fill="white"/>
    <path d="M103.923 6.68945H106.309V7.06902C106.309 9.50913 105.333 11.4612 103.381 12.9253C104.32 13.6121 105.043 14.4707 105.55 15.5009C106.056 16.5131 106.309 17.5886 106.309 18.7273V19.7034H103.923V18.7273C103.923 17.7151 103.679 16.8023 103.191 15.989C102.703 15.1756 101.98 14.552 101.022 14.1182C100.082 14.5701 99.3589 15.2208 98.8528 16.0703C98.3648 16.9198 98.1207 17.8597 98.1207 18.89V19.7034H95.7349V18.89C95.7349 16.3595 96.7109 14.3713 98.663 12.9253C96.7109 11.4612 95.7349 9.45491 95.7349 6.90635V6.68945H98.1207V6.90635C98.1207 7.93662 98.3648 8.87651 98.8528 9.72603C99.3589 10.5755 100.082 11.2353 101.022 11.7052C102.956 10.8015 103.923 9.25608 103.923 7.06902V6.68945Z" fill="white"/>
    <path d="M89.0957 6.41774C92.1684 6.54427 93.7048 7.81854 93.7048 10.2406C93.7048 13.2591 91.7256 14.7683 87.7672 14.7683H86.6556V12.6807H87.957C89.168 12.6807 90.0085 12.4999 90.4784 12.1384C90.9484 11.7589 91.1833 11.1353 91.1833 10.2677C91.1833 9.70737 90.9755 9.29165 90.5598 9.02052C90.144 8.73132 89.6108 8.58673 88.9601 8.58673C87.6768 8.58673 86.6646 9.0386 85.9236 9.94234C85.2006 10.8461 84.8391 11.9306 84.8391 13.1958C84.8391 14.5334 85.2277 15.6178 86.0049 16.4493C86.8002 17.2807 87.8305 17.6965 89.0957 17.6965C90.2344 17.6965 91.1653 17.4163 91.8883 16.856L93.515 18.4556C92.2678 19.4678 90.7947 19.9739 89.0957 19.9739C87.0352 19.9739 85.3904 19.3684 84.1613 18.1574C82.9322 16.9463 82.3176 15.3829 82.3176 13.4669C82.3176 11.3341 82.9231 9.60796 84.1341 8.28849C85.3452 6.96903 86.999 6.34544 89.0957 6.41774Z" fill="white"/>
    <path d="M77.0318 0.724609H79.4719V19.7032H73.1005C71.1304 19.7032 69.5307 19.0796 68.3016 17.8325C67.0726 16.5672 66.458 14.9766 66.458 13.0607C66.458 11.1809 67.0906 9.6084 68.3559 8.34316C69.6392 7.05985 71.1575 6.41819 72.9107 6.41819C74.0314 6.41819 75.0797 6.68931 76.0558 7.23156V9.67166C75.152 9.02097 74.1037 8.69562 72.9107 8.69562C71.8262 8.69562 70.9044 9.10231 70.1453 9.91567C69.4042 10.711 69.0337 11.7593 69.0337 13.0607C69.0337 14.3802 69.3861 15.4375 70.0911 16.2328C70.814 17.0281 71.8172 17.4258 73.1005 17.4258H77.0318V0.724609Z" fill="white"/>
    <path d="M55.7656 8.96638L60.6187 4.11328V6.68895H64.2789V8.96638H60.6187V14.5515C60.6187 15.1841 60.7181 15.7083 60.917 16.124C61.1339 16.5397 61.4411 16.838 61.8388 17.0187C62.2364 17.1814 62.607 17.2899 62.9504 17.3441C63.3119 17.3983 63.7547 17.4254 64.2789 17.4254V19.7028C62.2003 19.7028 60.6639 19.3052 59.6698 18.5099C58.6757 17.7146 58.1786 16.3951 58.1786 14.5515V8.96638H55.7656Z" fill="white"/>
    <path d="M49.8039 6.41774C52.8767 6.54427 54.413 7.81854 54.413 10.2406C54.413 13.2591 52.4338 14.7683 48.4754 14.7683H47.3638V12.6807H48.6652C49.8763 12.6807 50.7167 12.4999 51.1867 12.1384C51.6566 11.7589 51.8916 11.1353 51.8916 10.2677C51.8916 9.70737 51.6837 9.29165 51.268 9.02052C50.8523 8.73132 50.3191 8.58673 49.6684 8.58673C48.3851 8.58673 47.3729 9.0386 46.6318 9.94234C45.9088 10.8461 45.5473 11.9306 45.5473 13.1958C45.5473 14.5334 45.9359 15.6178 46.7131 16.4493C47.5084 17.2807 48.5387 17.6965 49.8039 17.6965C50.9427 17.6965 51.8735 17.4163 52.5965 16.856L54.2233 18.4556C52.9761 19.4678 51.503 19.9739 49.8039 19.9739C47.7434 19.9739 46.0986 19.3684 44.8695 18.1574C43.6404 16.9463 43.0259 15.3829 43.0259 13.4669C43.0259 11.3341 43.6314 9.60796 44.8424 8.28849C46.0534 6.96903 47.7073 6.34544 49.8039 6.41774Z" fill="white"/>
    <path d="M30.8363 19.9739C30.6194 19.9739 30.3935 19.9378 30.1585 19.8655C29.9416 19.7932 29.7609 19.6214 29.6163 19.3503C29.4717 19.0792 29.3994 18.6635 29.3994 18.1032C29.3994 17.6513 29.4355 17.0819 29.5078 16.3951C29.5982 15.6902 29.7066 14.9401 29.8332 14.1448C29.9597 13.3314 30.0591 12.4728 30.1314 11.5691C30.2218 10.6654 30.267 9.75257 30.267 8.83075C30.267 8.46926 30.2579 8.08065 30.2399 7.66493C30.2218 7.2492 30.1856 6.84252 30.1314 6.44487C30.0049 6.51717 29.8784 6.58044 29.7518 6.63466C29.6434 6.67081 29.5349 6.68888 29.4265 6.68888C29.1192 6.68888 28.9656 6.39065 28.9656 5.79418C28.9656 5.25193 29.0831 4.80006 29.318 4.43856C29.5711 4.05899 30.023 3.69749 30.6737 3.35407C31.3063 3.01065 32.0473 2.73049 32.8969 2.51359C33.7645 2.27862 34.6411 2.16113 35.5268 2.16113C37.28 2.16113 38.6808 2.62204 39.7292 3.54386C40.7956 4.46568 41.3288 5.69477 41.3288 7.23113C41.3288 8.17102 41.139 9.03862 40.7594 9.83391C40.3799 10.6292 39.8738 11.3251 39.2411 11.9216C38.6266 12.5 37.9488 12.9518 37.2077 13.2772C36.4847 13.5844 35.7708 13.7381 35.0658 13.7381C34.3971 13.7381 33.9452 13.5935 33.7102 13.3043C33.4753 12.997 33.3578 12.5632 33.3578 12.0029C33.3578 11.7318 33.3849 11.4878 33.4391 11.2709C33.5114 11.0359 33.656 10.9184 33.8729 10.9184C33.9271 10.9184 34.0085 10.9274 34.1169 10.9455C34.2254 10.9636 34.3338 10.9907 34.4423 11.0268C34.5507 11.0449 34.7043 11.072 34.9032 11.1082C35.102 11.1443 35.3279 11.1624 35.581 11.1624C36.5751 11.1624 37.3794 10.8822 37.994 10.3219C38.6266 9.76161 38.9429 9.03862 38.9429 8.15295C38.9429 7.23113 38.5995 6.50813 37.9126 5.98396C37.2258 5.45979 36.3401 5.19771 35.2556 5.19771C34.858 5.19771 34.4513 5.23386 34.0356 5.30616C33.6199 5.36038 33.2041 5.44172 32.7884 5.55017C32.7342 6.74311 32.6077 8.09872 32.4088 9.61701C32.3004 10.5208 32.201 11.4155 32.1106 12.3011C32.0383 13.1687 32.0022 13.964 32.0022 14.687C32.0022 15.3196 32.0564 15.8799 32.1648 16.368C32.2914 16.8379 32.5354 17.2446 32.8969 17.588C33.1499 17.8411 33.2764 18.1122 33.2764 18.4014C33.2764 18.799 33.0505 19.1605 32.5986 19.4859C32.1468 19.8112 31.5593 19.9739 30.8363 19.9739Z" fill="white"/>
</svg>
