<svg width="960" height="50" viewBox="0 0 960 50" fill="none" xmlns="http://www.w3.org/2000/svg">
<path d="M2 1.5L2 48.5" stroke="#A0AEC0" stroke-width="3" stroke-linecap="round"/>
<path d="M26 17.5L26 32.5" stroke="#C6CED9" stroke-width="3" stroke-linecap="round"/>
<path d="M50 17.5L50 32.5" stroke="#C6CED9" stroke-width="3" stroke-linecap="round"/>
<path d="M74 17.5L74 32.5" stroke="#C6CED9" stroke-width="3" stroke-linecap="round"/>
<path d="M98 17.5L98 32.5" stroke="#C6CED9" stroke-width="3" stroke-linecap="round"/>
<path d="M122 11.5L122 38.5" stroke="#A0AEC0" stroke-width="3" stroke-linecap="round"/>
<path d="M146 17.5L146 32.5" stroke="#C6CED9" stroke-width="3" stroke-linecap="round"/>
<path d="M170 17.5L170 32.5" stroke="#C6CED9" stroke-width="3" stroke-linecap="round"/>
<path d="M194 17.5L194 32.5" stroke="#C6CED9" stroke-width="3" stroke-linecap="round"/>
<path d="M218 17.5L218 32.5" stroke="#C6CED9" stroke-width="3" stroke-linecap="round"/>
<path d="M242 1.5L242 48.5" stroke="#A0AEC0" stroke-width="3" stroke-linecap="round"/>
<path d="M266 17.5L266 32.5" stroke="#C6CED9" stroke-width="3" stroke-linecap="round"/>
<path d="M290 17.5L290 32.5" stroke="#C6CED9" stroke-width="3" stroke-linecap="round"/>
<path d="M314 17.5L314 32.5" stroke="#C6CED9" stroke-width="3" stroke-linecap="round"/>
<path d="M338 17.5L338 32.5" stroke="#C6CED9" stroke-width="3" stroke-linecap="round"/>
<path d="M362 11.5L362 38.5" stroke="#A0AEC0" stroke-width="3" stroke-linecap="round"/>
<path d="M386 17.5L386 32.5" stroke="#C6CED9" stroke-width="3" stroke-linecap="round"/>
<path d="M410 17.5L410 32.5" stroke="#C6CED9" stroke-width="3" stroke-linecap="round"/>
<path d="M434 17.5L434 32.5" stroke="#C6CED9" stroke-width="3" stroke-linecap="round"/>
<path d="M458 17.5L458 32.5" stroke="#C6CED9" stroke-width="3" stroke-linecap="round"/>
<path d="M482 1.5L482 48.5" stroke="#A0AEC0" stroke-width="3" stroke-linecap="round"/>
<path d="M506 17.5L506 32.5" stroke="#C6CED9" stroke-width="3" stroke-linecap="round"/>
<path d="M554 17.5L554 32.5" stroke="#C6CED9" stroke-width="3" stroke-linecap="round"/>
<path d="M530 17L530 32" stroke="#C6CED9" stroke-width="3" stroke-linecap="round"/>
<path d="M578 17.5L578 32.5" stroke="#C6CED9" stroke-width="3" stroke-linecap="round"/>
<path d="M602 11.5L602 38.5" stroke="#A0AEC0" stroke-width="3" stroke-linecap="round"/>
<path d="M626 17.5L626 32.5" stroke="#C6CED9" stroke-width="3" stroke-linecap="round"/>
<path d="M650 17.5L650 32.5" stroke="#C6CED9" stroke-width="3" stroke-linecap="round"/>
<path d="M674 17.5L674 32.5" stroke="#C6CED9" stroke-width="3" stroke-linecap="round"/>
<path d="M698 17.5L698 32.5" stroke="#C6CED9" stroke-width="3" stroke-linecap="round"/>
<path d="M722 1.5L722 48.5" stroke="#A0AEC0" stroke-width="3" stroke-linecap="round"/>
<path d="M746 17.5L746 32.5" stroke="#C6CED9" stroke-width="3" stroke-linecap="round"/>
<path d="M770 17.5L770 32.5" stroke="#C6CED9" stroke-width="3" stroke-linecap="round"/>
<path d="M794 17.5L794 32.5" stroke="#C6CED9" stroke-width="3" stroke-linecap="round"/>
<path d="M818 17.5L818 32.5" stroke="#C6CED9" stroke-width="3" stroke-linecap="round"/>
<path d="M842 11.5L842 38.5" stroke="#A0AEC0" stroke-width="3" stroke-linecap="round"/>
<path d="M866 17.5L866 32.5" stroke="#C6CED9" stroke-width="3" stroke-linecap="round"/>
<path d="M890 17.5L890 32.5" stroke="#C6CED9" stroke-width="3" stroke-linecap="round"/>
<path d="M914 17.5L914 32.5" stroke="#C6CED9" stroke-width="3" stroke-linecap="round"/>
<path d="M938 17.5L938 32.5" stroke="#C6CED9" stroke-width="3" stroke-linecap="round"/>
</svg>
