<svg xmlns="http://www.w3.org/2000/svg" width="20" height="20" viewBox="0 0 20 20" fill="none">
  <path d="M8.60417 3.5975C8.95917 2.13417 11.0408 2.13417 11.3958 3.5975C11.4491 3.81733 11.5535 4.02148 11.7006 4.19333C11.8477 4.36518 12.0332 4.49988 12.2422 4.58645C12.4512 4.67303 12.6776 4.70904 12.9032 4.69156C13.1287 4.67407 13.3469 4.60359 13.54 4.48583C14.8258 3.7025 16.2983 5.17417 15.515 6.46083C15.3974 6.65388 15.327 6.87195 15.3096 7.09731C15.2922 7.32267 15.3281 7.54897 15.4146 7.75782C15.5011 7.96666 15.6356 8.15215 15.8073 8.29921C15.9789 8.44627 16.1829 8.55075 16.4025 8.60417C17.8658 8.95917 17.8658 11.0408 16.4025 11.3958C16.1827 11.4491 15.9785 11.5535 15.8067 11.7006C15.6348 11.8477 15.5001 12.0332 15.4135 12.2422C15.327 12.4512 15.291 12.6776 15.3084 12.9032C15.3259 13.1287 15.3964 13.3469 15.5142 13.54C16.2975 14.8258 14.8258 16.2983 13.5392 15.515C13.3461 15.3974 13.1281 15.327 12.9027 15.3096C12.6773 15.2922 12.451 15.3281 12.2422 15.4146C12.0333 15.5011 11.8479 15.6356 11.7008 15.8073C11.5537 15.9789 11.4492 16.1829 11.3958 16.4025C11.0408 17.8658 8.95917 17.8658 8.60417 16.4025C8.5509 16.1827 8.44648 15.9785 8.29941 15.8067C8.15233 15.6348 7.96676 15.5001 7.75779 15.4135C7.54882 15.327 7.32236 15.291 7.09685 15.3084C6.87133 15.3259 6.65313 15.3964 6.46 15.5142C5.17417 16.2975 3.70167 14.8258 4.485 13.5392C4.60258 13.3461 4.67296 13.1281 4.6904 12.9027C4.70785 12.6773 4.67187 12.451 4.58539 12.2422C4.49892 12.0333 4.36438 11.8479 4.19273 11.7008C4.02107 11.5537 3.81714 11.4492 3.5975 11.3958C2.13417 11.0408 2.13417 8.95917 3.5975 8.60417C3.81733 8.5509 4.02148 8.44648 4.19333 8.29941C4.36518 8.15233 4.49988 7.96676 4.58645 7.75779C4.67303 7.54882 4.70904 7.32236 4.69156 7.09685C4.67407 6.87133 4.60359 6.65313 4.48583 6.46C3.7025 5.17417 5.17417 3.70167 6.46083 4.485C7.29417 4.99167 8.37417 4.54333 8.60417 3.5975Z" stroke="white" stroke-width="1.5" stroke-linecap="round" stroke-linejoin="round"/>
  <path d="M10 12.5C11.3807 12.5 12.5 11.3807 12.5 10C12.5 8.61929 11.3807 7.5 10 7.5C8.61929 7.5 7.5 8.61929 7.5 10C7.5 11.3807 8.61929 12.5 10 12.5Z" stroke="white" stroke-width="1.5" stroke-linecap="round" stroke-linejoin="round"/>
</svg>