<svg xmlns="http://www.w3.org/2000/svg" width="20" height="20" viewBox="0 0 20 20" fill="none">
  <path d="M11.6667 6.66634V4.99967C11.6667 4.55765 11.4911 4.13372 11.1785 3.82116C10.866 3.5086 10.442 3.33301 10 3.33301H4.16667C3.72464 3.33301 3.30072 3.5086 2.98816 3.82116C2.67559 4.13372 2.5 4.55765 2.5 4.99967V14.9997C2.5 15.4417 2.67559 15.8656 2.98816 16.1782C3.30072 16.4907 3.72464 16.6663 4.16667 16.6663H10C10.442 16.6663 10.866 16.4907 11.1785 16.1782C11.4911 15.8656 11.6667 15.4417 11.6667 14.9997V13.333M5.83333 9.99967H17.5M17.5 9.99967L15 7.49967M17.5 9.99967L15 12.4997" stroke="#F7FAFC" stroke-width="1.5" stroke-linecap="round" stroke-linejoin="round"/>
</svg>