<svg xmlns="http://www.w3.org/2000/svg" width="20" height="20" viewBox="0 0 20 20" fill="none">
  <path d="M11.6666 5.83301H16.6666M14.1666 3.33301V8.33301M4.16659 3.33301H7.49992C7.96016 3.33301 8.33325 3.7061 8.33325 4.16634V7.49967C8.33325 7.95991 7.96016 8.33301 7.49992 8.33301H4.16659C3.70635 8.33301 3.33325 7.95991 3.33325 7.49967V4.16634C3.33325 3.7061 3.70635 3.33301 4.16659 3.33301ZM4.16659 11.6663H7.49992C7.96016 11.6663 8.33325 12.0394 8.33325 12.4997V15.833C8.33325 16.2932 7.96016 16.6663 7.49992 16.6663H4.16659C3.70635 16.6663 3.33325 16.2932 3.33325 15.833V12.4997C3.33325 12.0394 3.70635 11.6663 4.16659 11.6663ZM12.4999 11.6663H15.8333C16.2935 11.6663 16.6666 12.0394 16.6666 12.4997V15.833C16.6666 16.2932 16.2935 16.6663 15.8333 16.6663H12.4999C12.0397 16.6663 11.6666 16.2932 11.6666 15.833V12.4997C11.6666 12.0394 12.0397 11.6663 12.4999 11.6663Z" stroke="white" stroke-width="1.5" stroke-linecap="round" stroke-linejoin="round"/>
</svg>