<svg width="40" height="42" viewBox="0 0 40 42" fill="none" xmlns="http://www.w3.org/2000/svg">
<g id="Illustration">
<g id="Illustration_2">
<path id="Vector" d="M9.95848 30.9651L0.393267 40.5358L0.222656 38.4169L8.81924 29.8203L9.95848 30.9651Z" fill="#31AA7A"/>
<path id="Vector_2" d="M33.3656 3.56217L24.1035 12.8242L26.9639 15.6846L36.2259 6.42251L33.3656 3.56217Z" fill="#31AA7A"/>
<path id="Vector_3" d="M29.5959 18.3037L14.6591 33.2404L8.65474 31.1325L6.54688 25.1281L21.4836 10.1914L29.5959 18.3037Z" fill="#9EEACC"/>
<path id="Vector_4" d="M14.1747 31.1236L18.5611 26.7372L13.0465 21.2227L8.66016 25.609L10.0966 29.6872L14.1747 31.1236Z" fill="white"/>
<path id="Vector_5" d="M14.0191 20.2504L12.875 21.3945L18.3894 26.909L19.5336 25.7648L14.0191 20.2504Z" fill="#31AA7A"/>
<path id="Vector_6" d="M31.3511 0.5424L30.3203 1.57422L38.2205 9.46617L39.2513 8.43435L31.3511 0.5424Z" fill="#31AA7A"/>
<path id="Vector_7" d="M8.09635 29.5872L5.67188 32.0117L7.76557 34.1054L10.19 31.6809L8.09635 29.5872Z" fill="#31AA7A"/>
<path id="Vector_8" d="M24.6136 12.3083L15.3477 21.5742L18.208 24.4346L27.4739 15.1686L24.6136 12.3083Z" fill="#31AA7A"/>
<path id="Vector_9" d="M19.4233 7.12053L18.3926 8.15234L31.6388 21.3847L32.6695 20.3529L19.4233 7.12053Z" fill="#31AA7A"/>
</g>
</g>
</svg>
