<svg xmlns="http://www.w3.org/2000/svg" width="16" height="20" viewBox="0 0 16 20" fill="none">
          <mask id="mask0_1193_8345" style="mask-type:luminance" maskUnits="userSpaceOnUse" x="0" y="0" width="17" height="20">
            <path fill-rule="evenodd" clip-rule="evenodd" d="M14.007 13.5068V8.50425C14.007 5.43271 12.3762 2.86143 9.50475 2.18109V1.50075C9.50475 0.670335 8.83441 0 8.004 0C7.17358 0 6.50325 0.670335 6.50325 1.50075V2.18109C3.64182 2.86143 2.001 5.42271 2.001 8.50425V13.5068L0 15.5077V16.5082H16.008V15.5077L14.007 13.5068ZM8.004 19.5098C9.10455 19.5098 10.005 18.6093 10.005 17.5088H6.003C6.003 18.6093 6.90345 19.5098 8.004 19.5098ZM4.002 14.5072H12.006V8.50425C12.006 6.02301 10.4952 4.002 8.004 4.002C5.51275 4.002 4.002 6.02301 4.002 8.50425V14.5072Z" fill="white"/>
          </mask>
          <g mask="url(#mask0_1193_8345)">
            <rect x="-4.37866" y="-2.49512" width="24" height="24" fill="white"/>
          </g>
        </svg>